<svg xmlns="http://www.w3.org/2000/svg" xmlns:xlink="http://www.w3.org/1999/xlink" width="500" zoomAndPan="magnify" viewBox="0 0 375 374.999991" height="500" preserveAspectRatio="xMidYMid meet" version="1.0"><defs><g/><clipPath id="a842a1e9a8"><path d="M 38 181 L 108.433594 181 L 108.433594 193 L 38 193 Z M 38 181 " clip-rule="nonzero"/></clipPath><clipPath id="e6acf51c1a"><path d="M 52 155 L 108.433594 155 L 108.433594 167 L 52 167 Z M 52 155 " clip-rule="nonzero"/></clipPath><clipPath id="1b46d4ffb2"><path d="M 81 168 L 108.433594 168 L 108.433594 180 L 81 180 Z M 81 168 " clip-rule="nonzero"/></clipPath><clipPath id="bab043e62d"><path d="M 20.683594 181 L 34 181 L 34 193 L 20.683594 193 Z M 20.683594 181 " clip-rule="nonzero"/></clipPath><clipPath id="62c80c72d8"><path d="M 54 195 L 108.433594 195 L 108.433594 207 L 54 207 Z M 54 195 " clip-rule="nonzero"/></clipPath><clipPath id="64e33efebe"><path d="M 60 208 L 108.433594 208 L 108.433594 220 L 60 220 Z M 60 208 " clip-rule="nonzero"/></clipPath></defs><g clip-path="url(#a842a1e9a8)"><path fill="#058ef5" d="M 139.460938 181.894531 L 82.628906 181.894531 L 80.203125 186.089844 L 74.582031 186.089844 L 72.15625 181.894531 C 70.0625 181.894531 43.84375 181.894531 41.75 181.894531 L 38.609375 187.328125 L 41.75 192.765625 C 43.84375 192.765625 70.0625 192.765625 72.15625 192.765625 L 74.582031 188.570312 L 80.203125 188.570312 L 82.628906 192.765625 L 139.460938 192.765625 C 140.085938 189.175781 140.085938 185.496094 139.460938 181.894531 Z M 139.460938 181.894531 " fill-opacity="1" fill-rule="nonzero"/></g><g clip-path="url(#e6acf51c1a)"><path fill="#058ef5" d="M 61.433594 166.039062 L 63.859375 161.84375 L 69.480469 161.84375 L 71.90625 166.039062 L 131.824219 166.039062 C 120.5625 153.34375 107.933594 155.15625 92.703125 155.15625 L 71.90625 155.15625 L 69.480469 159.351562 L 63.859375 159.351562 L 61.433594 155.15625 L 55.15625 155.15625 L 52.019531 160.589844 L 55.15625 166.027344 L 61.433594 166.027344 Z M 61.433594 166.039062 " fill-opacity="1" fill-rule="nonzero"/></g><g clip-path="url(#1b46d4ffb2)"><path fill="#058ef5" d="M 98.96875 172.726562 L 93.351562 172.726562 L 90.921875 168.53125 L 84.644531 168.53125 L 81.507812 173.964844 L 84.644531 179.402344 L 90.921875 179.402344 L 93.351562 175.207031 L 98.96875 175.207031 L 101.398438 179.402344 L 138.933594 179.402344 C 137.917969 175.433594 136.160156 171.753906 133.820312 168.519531 L 101.398438 168.519531 Z M 98.96875 172.726562 " fill-opacity="1" fill-rule="nonzero"/></g><g clip-path="url(#bab043e62d)"><path fill="#058ef5" d="M 23.824219 181.894531 L 20.683594 187.328125 L 23.824219 192.777344 L 30.109375 192.777344 L 33.25 187.328125 L 30.109375 181.894531 Z M 23.824219 181.894531 " fill-opacity="1" fill-rule="nonzero"/></g><path fill="#058ef5" d="M 63.582031 173.964844 L 66.71875 179.402344 L 73.007812 179.402344 L 76.144531 173.964844 L 73.007812 168.53125 L 66.71875 168.53125 Z M 63.582031 173.964844 " fill-opacity="1" fill-rule="nonzero"/><path fill="#058ef5" d="M 45.277344 208.621094 L 42.128906 214.070312 L 45.277344 219.503906 L 51.554688 219.503906 L 54.691406 214.070312 L 51.554688 208.621094 Z M 45.277344 208.621094 " fill-opacity="1" fill-rule="nonzero"/><g clip-path="url(#62c80c72d8)"><path fill="#058ef5" d="M 72.15625 199.453125 L 66.535156 199.453125 L 64.109375 195.257812 L 57.832031 195.257812 L 54.691406 200.695312 L 57.832031 206.128906 L 64.109375 206.128906 L 66.535156 201.933594 L 72.15625 201.933594 L 74.582031 206.128906 L 133.808594 206.128906 C 136.148438 202.894531 137.90625 199.214844 138.921875 195.246094 C 119.257812 195.246094 94.234375 195.246094 74.570312 195.246094 Z M 72.15625 199.453125 " fill-opacity="1" fill-rule="nonzero"/></g><g clip-path="url(#64e33efebe)"><path fill="#058ef5" d="M 88.25 212.828125 L 82.628906 212.828125 L 80.203125 208.632812 C 74.539062 208.632812 68.867188 208.632812 63.191406 208.632812 L 60.054688 214.070312 L 63.191406 219.503906 C 68.867188 219.503906 74.527344 219.503906 80.203125 219.503906 L 82.628906 215.308594 L 88.25 215.308594 L 90.675781 219.503906 C 106.757812 219.503906 120.273438 221.652344 131.824219 208.621094 L 90.675781 208.621094 Z M 88.25 212.828125 " fill-opacity="1" fill-rule="nonzero"/></g><g fill="#000000" fill-opacity="1"><g transform="translate(134.653881, 187.752496)"><g><path d="M 7.109375 0 L -0.390625 0 L 9.796875 -26.890625 L 17.46875 -26.890625 L 27.65625 0 L 20.15625 0 L 18.4375 -4.796875 L 8.828125 -4.796875 Z M 10.5625 -9.796875 L 16.703125 -9.796875 L 13.640625 -18.8125 Z M 10.5625 -9.796875 "/></g></g></g><g fill="#000000" fill-opacity="1"><g transform="translate(169.591925, 187.752496)"><g/></g></g><g fill="#000000" fill-opacity="1"><g transform="translate(188.789811, 187.752496)"><g><path d="M 1.5 -5.5625 C 8.507812 -5.1875 13.257812 -5 15.75 -5 C 16.332031 -5 16.796875 -5.171875 17.140625 -5.515625 C 17.492188 -5.859375 17.671875 -6.320312 17.671875 -6.90625 L 17.671875 -10.375 L 8.828125 -10.375 C 6.140625 -10.375 4.1875 -10.976562 2.96875 -12.1875 C 1.757812 -13.40625 1.15625 -15.359375 1.15625 -18.046875 L 1.15625 -19.203125 C 1.15625 -21.890625 1.757812 -23.84375 2.96875 -25.0625 C 4.1875 -26.28125 6.140625 -26.890625 8.828125 -26.890625 L 22.3125 -26.890625 L 22.3125 -21.5 L 10.375 -21.5 C 8.832031 -21.5 8.0625 -20.734375 8.0625 -19.203125 L 8.0625 -18.4375 C 8.0625 -16.894531 8.832031 -16.125 10.375 -16.125 L 17.28125 -16.125 C 19.789062 -16.125 21.632812 -15.535156 22.8125 -14.359375 C 23.988281 -13.179688 24.578125 -11.335938 24.578125 -8.828125 L 24.578125 -6.90625 C 24.578125 -4.40625 23.988281 -2.5625 22.8125 -1.375 C 21.632812 -0.195312 19.789062 0.390625 17.28125 0.390625 C 15.976562 0.390625 14.597656 0.363281 13.140625 0.3125 L 9.59375 0.15625 C 6.988281 0.03125 4.289062 -0.148438 1.5 -0.390625 Z M 1.5 -5.5625 "/></g></g></g><g fill="#000000" fill-opacity="1"><g transform="translate(222.192229, 187.752496)"><g/></g></g><g fill="#000000" fill-opacity="1"><g transform="translate(241.390115, 187.752496)"><g><path d="M -0.765625 -26.890625 L 6.53125 -26.890625 L 12.859375 -13.828125 L 19.203125 -26.890625 L 26.5 -26.890625 L 16.328125 -7.109375 L 16.328125 0 L 9.40625 0 L 9.40625 -7.109375 Z M -0.765625 -26.890625 "/></g></g></g><g fill="#000000" fill-opacity="1"><g transform="translate(274.792533, 187.752496)"><g/></g></g><g fill="#000000" fill-opacity="1"><g transform="translate(293.990418, 187.752496)"><g><path d="M 2.296875 -26.890625 L 18.4375 -26.890625 C 21.125 -26.890625 23.070312 -26.28125 24.28125 -25.0625 C 25.5 -23.84375 26.109375 -21.890625 26.109375 -19.203125 L 26.109375 -15.359375 C 26.109375 -12.671875 25.5 -10.71875 24.28125 -9.5 C 23.070312 -8.289062 21.125 -7.6875 18.4375 -7.6875 L 9.21875 -7.6875 L 9.21875 0 L 2.296875 0 Z M 19.203125 -19.203125 C 19.203125 -20.734375 18.4375 -21.5 16.90625 -21.5 L 9.21875 -21.5 L 9.21875 -13.0625 L 16.90625 -13.0625 C 18.4375 -13.0625 19.203125 -13.828125 19.203125 -15.359375 Z M 19.203125 -19.203125 "/></g></g></g><g fill="#000000" fill-opacity="1"><g transform="translate(143.217194, 205.47818)"><g><path d="M 1.578125 0 L -0.078125 0 L 2.171875 -5.96875 L 3.875 -5.96875 L 6.140625 0 L 4.484375 0 L 4.09375 -1.0625 L 1.96875 -1.0625 Z M 2.34375 -2.171875 L 3.71875 -2.171875 L 3.03125 -4.1875 Z M 2.34375 -2.171875 "/></g></g></g><g fill="#000000" fill-opacity="1"><g transform="translate(155.760943, 205.47818)"><g><path d="M 2.046875 0 L 0.515625 0 L 0.515625 -5.96875 L 2.046875 -5.96875 L 2.046875 -3.625 L 2.8125 -3.625 L 4.140625 -5.96875 L 5.765625 -5.96875 L 4.09375 -3.03125 L 5.765625 0 L 4.140625 0 L 2.8125 -2.4375 L 2.046875 -2.4375 Z M 2.046875 0 "/></g></g></g><g fill="#000000" fill-opacity="1"><g transform="translate(168.014761, 205.47818)"><g><path d="M 3.328125 0 L 0.25 0 L 0.25 -1.1875 L 1.03125 -1.1875 L 1.03125 -4.78125 L 0.25 -4.78125 L 0.25 -5.96875 L 3.328125 -5.96875 L 3.328125 -4.78125 L 2.5625 -4.78125 L 2.5625 -1.1875 L 3.328125 -1.1875 Z M 3.328125 0 "/></g></g></g><g fill="#000000" fill-opacity="1"><g transform="translate(178.085565, 205.47818)"><g><path d="M 2.046875 -1.1875 L 5.15625 -1.1875 L 5.15625 0 L 0.515625 0 L 0.515625 -5.96875 L 2.046875 -5.96875 Z M 2.046875 -1.1875 "/></g></g></g><g fill="#000000" fill-opacity="1"><g transform="translate(189.819208, 205.47818)"><g><path d="M 2.046875 -1.1875 L 5.15625 -1.1875 L 5.15625 0 L 0.515625 0 L 0.515625 -5.96875 L 2.046875 -5.96875 Z M 2.046875 -1.1875 "/></g></g></g><g fill="#000000" fill-opacity="1"><g transform="translate(201.552853, 205.47818)"><g><path d="M 3.328125 0 L 0.25 0 L 0.25 -1.1875 L 1.03125 -1.1875 L 1.03125 -4.78125 L 0.25 -4.78125 L 0.25 -5.96875 L 3.328125 -5.96875 L 3.328125 -4.78125 L 2.5625 -4.78125 L 2.5625 -1.1875 L 3.328125 -1.1875 Z M 3.328125 0 "/></g></g></g><g fill="#000000" fill-opacity="1"><g transform="translate(211.623661, 205.47818)"><g/></g></g><g fill="#000000" fill-opacity="1"><g transform="translate(220.671176, 205.47818)"><g><path d="M 0.328125 -1.234375 C 1.890625 -1.148438 2.945312 -1.109375 3.5 -1.109375 C 3.625 -1.109375 3.722656 -1.144531 3.796875 -1.21875 C 3.878906 -1.300781 3.921875 -1.40625 3.921875 -1.53125 L 3.921875 -2.296875 L 1.96875 -2.296875 C 1.363281 -2.296875 0.925781 -2.429688 0.65625 -2.703125 C 0.382812 -2.972656 0.25 -3.410156 0.25 -4.015625 L 0.25 -4.265625 C 0.25 -4.859375 0.382812 -5.289062 0.65625 -5.5625 C 0.925781 -5.832031 1.363281 -5.96875 1.96875 -5.96875 L 4.953125 -5.96875 L 4.953125 -4.78125 L 2.296875 -4.78125 C 1.960938 -4.78125 1.796875 -4.609375 1.796875 -4.265625 L 1.796875 -4.09375 C 1.796875 -3.75 1.960938 -3.578125 2.296875 -3.578125 L 3.84375 -3.578125 C 4.394531 -3.578125 4.800781 -3.445312 5.0625 -3.1875 C 5.320312 -2.925781 5.453125 -2.519531 5.453125 -1.96875 L 5.453125 -1.53125 C 5.453125 -0.976562 5.320312 -0.570312 5.0625 -0.3125 C 4.800781 -0.0507812 4.394531 0.078125 3.84375 0.078125 C 3.550781 0.078125 3.242188 0.0703125 2.921875 0.0625 L 2.140625 0.03125 C 1.554688 0 0.953125 -0.0351562 0.328125 -0.078125 Z M 0.328125 -1.234375 "/></g></g></g><g fill="#000000" fill-opacity="1"><g transform="translate(232.873827, 205.47818)"><g><path d="M 0.34375 0 Z M 4.34375 -4.34375 C 4.34375 -4.6875 4.175781 -4.859375 3.84375 -4.859375 L 2.390625 -4.859375 C 2.046875 -4.859375 1.875 -4.6875 1.875 -4.34375 L 1.875 -1.625 C 1.875 -1.28125 2.046875 -1.109375 2.390625 -1.109375 L 3.84375 -1.109375 C 4.175781 -1.109375 4.34375 -1.28125 4.34375 -1.625 Z M 5.890625 -1.625 C 5.890625 -1.019531 5.753906 -0.582031 5.484375 -0.3125 C 5.210938 -0.0507812 4.78125 0.078125 4.1875 0.078125 L 2.046875 0.078125 C 1.453125 0.078125 1.019531 -0.0507812 0.75 -0.3125 C 0.476562 -0.582031 0.34375 -1.019531 0.34375 -1.625 L 0.34375 -4.34375 C 0.34375 -4.945312 0.476562 -5.382812 0.75 -5.65625 C 1.019531 -5.925781 1.453125 -6.0625 2.046875 -6.0625 L 4.1875 -6.0625 C 4.78125 -6.0625 5.210938 -5.925781 5.484375 -5.65625 C 5.753906 -5.382812 5.890625 -4.945312 5.890625 -4.34375 Z M 3.375 -7.6875 L 4.8125 -7.6875 L 4.8125 -6.484375 L 3.375 -6.484375 Z M 1.40625 -7.6875 L 2.859375 -7.6875 L 2.859375 -6.484375 L 1.40625 -6.484375 Z M 1.40625 -7.6875 "/></g></g></g><g fill="#000000" fill-opacity="1"><g transform="translate(245.588119, 205.47818)"><g><path d="M 5.03125 -4.78125 L 2.046875 -1.1875 L 5.03125 -1.1875 L 5.03125 0 L 0.171875 0 L 0.171875 -1.1875 L 3.15625 -4.78125 L 0.171875 -4.78125 L 0.171875 -5.96875 L 5.03125 -5.96875 Z M 5.03125 -4.78125 "/></g></g></g><g fill="#000000" fill-opacity="1"><g transform="translate(257.279129, 205.47818)"><g><path d="M 2.046875 -1.1875 L 5.15625 -1.1875 L 5.15625 0 L 0.515625 0 L 0.515625 -5.96875 L 2.046875 -5.96875 Z M 2.046875 -1.1875 "/></g></g></g><g fill="#000000" fill-opacity="1"><g transform="translate(269.012774, 205.47818)"><g><path d="M 5.25 0 L 0.515625 0 L 0.515625 -5.96875 L 5.25 -5.96875 L 5.25 -4.78125 L 2.046875 -4.78125 L 2.046875 -3.625 L 4.5625 -3.625 L 4.5625 -2.4375 L 2.046875 -2.4375 L 2.046875 -1.1875 L 5.25 -1.1875 Z M 5.25 0 "/></g></g></g><g fill="#000000" fill-opacity="1"><g transform="translate(280.91697, 205.47818)"><g><path d="M 0.25 0 Z M 0.328125 -1.234375 C 1.890625 -1.148438 2.945312 -1.109375 3.5 -1.109375 C 3.625 -1.109375 3.722656 -1.144531 3.796875 -1.21875 C 3.878906 -1.300781 3.921875 -1.40625 3.921875 -1.53125 L 3.921875 -2.296875 L 1.96875 -2.296875 C 1.363281 -2.296875 0.925781 -2.429688 0.65625 -2.703125 C 0.382812 -2.972656 0.25 -3.410156 0.25 -4.015625 L 0.25 -4.265625 C 0.25 -4.859375 0.382812 -5.289062 0.65625 -5.5625 C 0.925781 -5.832031 1.363281 -5.96875 1.96875 -5.96875 L 4.953125 -5.96875 L 4.953125 -4.78125 L 2.296875 -4.78125 C 1.960938 -4.78125 1.796875 -4.609375 1.796875 -4.265625 L 1.796875 -4.09375 C 1.796875 -3.75 1.960938 -3.578125 2.296875 -3.578125 L 3.84375 -3.578125 C 4.394531 -3.578125 4.800781 -3.445312 5.0625 -3.1875 C 5.320312 -2.925781 5.453125 -2.519531 5.453125 -1.96875 L 5.453125 -1.53125 C 5.453125 -0.976562 5.320312 -0.570312 5.0625 -0.3125 C 4.800781 -0.0507812 4.394531 0.078125 3.84375 0.078125 C 3.550781 0.078125 3.242188 0.0703125 2.921875 0.0625 L 2.140625 0.03125 C 1.554688 0 0.953125 -0.0351562 0.328125 -0.078125 Z M 2.9375 -0.09375 L 2.9375 0.25 L 3.03125 0.25 C 3.300781 0.25 3.507812 0.316406 3.65625 0.453125 C 3.800781 0.585938 3.875 0.773438 3.875 1.015625 C 3.875 1.253906 3.800781 1.441406 3.65625 1.578125 C 3.507812 1.710938 3.300781 1.78125 3.03125 1.78125 L 2 1.78125 L 2 1.234375 L 2.859375 1.234375 C 3.054688 1.234375 3.15625 1.160156 3.15625 1.015625 C 3.15625 0.867188 3.054688 0.796875 2.859375 0.796875 L 2.21875 0.796875 L 2.21875 -0.09375 Z M 2.9375 -0.09375 "/></g></g></g><g fill="#000000" fill-opacity="1"><g transform="translate(293.119621, 205.47818)"><g><path d="M 5.625 -3.328125 L 4.4375 -1.1875 L 3.234375 -1.1875 L 2.046875 -3.328125 L 2.046875 0 L 0.515625 0 L 0.515625 -5.96875 L 2.140625 -5.96875 L 3.84375 -2.8125 L 5.546875 -5.96875 L 7.171875 -5.96875 L 7.171875 0 L 5.625 0 Z M 5.625 -3.328125 "/></g></g></g><g fill="#000000" fill-opacity="1"><g transform="translate(307.283576, 205.47818)"><g><path d="M 5.25 0 L 0.515625 0 L 0.515625 -5.96875 L 5.25 -5.96875 L 5.25 -4.78125 L 2.046875 -4.78125 L 2.046875 -3.625 L 4.5625 -3.625 L 4.5625 -2.4375 L 2.046875 -2.4375 L 2.046875 -1.1875 L 5.25 -1.1875 Z M 5.25 0 "/></g></g></g><g fill="#000000" fill-opacity="1"><g transform="translate(127.494929, 214.716121)"><g><path d="M -0.171875 -5.96875 L 1.453125 -5.96875 L 2.859375 -3.078125 L 4.265625 -5.96875 L 5.890625 -5.96875 L 3.625 -1.578125 L 3.625 0 L 2.09375 0 L 2.09375 -1.578125 Z M -0.171875 -5.96875 "/></g></g></g><g fill="#000000" fill-opacity="1"><g transform="translate(139.697577, 214.716121)"><g><path d="M 0.34375 0 Z M 4.34375 -4.34375 C 4.34375 -4.6875 4.175781 -4.859375 3.84375 -4.859375 L 2.390625 -4.859375 C 2.046875 -4.859375 1.875 -4.6875 1.875 -4.34375 L 1.875 -1.625 C 1.875 -1.28125 2.046875 -1.109375 2.390625 -1.109375 L 3.84375 -1.109375 C 4.175781 -1.109375 4.34375 -1.28125 4.34375 -1.625 Z M 5.890625 -1.625 C 5.890625 -1.019531 5.753906 -0.582031 5.484375 -0.3125 C 5.210938 -0.0507812 4.78125 0.078125 4.1875 0.078125 L 2.046875 0.078125 C 1.453125 0.078125 1.019531 -0.0507812 0.75 -0.3125 C 0.476562 -0.582031 0.34375 -1.019531 0.34375 -1.625 L 0.34375 -4.34375 C 0.34375 -4.945312 0.476562 -5.382812 0.75 -5.65625 C 1.019531 -5.925781 1.453125 -6.0625 2.046875 -6.0625 L 4.1875 -6.0625 C 4.78125 -6.0625 5.210938 -5.925781 5.484375 -5.65625 C 5.753906 -5.382812 5.890625 -4.945312 5.890625 -4.34375 Z M 3.375 -7.6875 L 4.8125 -7.6875 L 4.8125 -6.484375 L 3.375 -6.484375 Z M 1.40625 -7.6875 L 2.859375 -7.6875 L 2.859375 -6.484375 L 1.40625 -6.484375 Z M 1.40625 -7.6875 "/></g></g></g><g fill="#000000" fill-opacity="1"><g transform="translate(152.411866, 214.716121)"><g><path d="M 5.71875 0 L 4.09375 0 L 2.046875 -3.578125 L 2.046875 0 L 0.515625 0 L 0.515625 -5.96875 L 2.140625 -5.96875 L 4.1875 -2.390625 L 4.1875 -5.96875 L 5.71875 -5.96875 Z M 5.71875 0 "/></g></g></g><g fill="#000000" fill-opacity="1"><g transform="translate(165.126156, 214.716121)"><g><path d="M 5.25 0 L 0.515625 0 L 0.515625 -5.96875 L 5.25 -5.96875 L 5.25 -4.78125 L 2.046875 -4.78125 L 2.046875 -3.625 L 4.5625 -3.625 L 4.5625 -2.4375 L 2.046875 -2.4375 L 2.046875 -1.1875 L 5.25 -1.1875 Z M 5.25 0 "/></g></g></g><g fill="#000000" fill-opacity="1"><g transform="translate(177.030349, 214.716121)"><g><path d="M 3.40625 0 L 1.875 0 L 1.875 -4.78125 L 0.078125 -4.78125 L 0.078125 -5.96875 L 5.203125 -5.96875 L 5.203125 -4.78125 L 3.40625 -4.78125 Z M 3.40625 0 "/></g></g></g><g fill="#000000" fill-opacity="1"><g transform="translate(188.806629, 214.716121)"><g><path d="M 0.25 0 Z M 3.328125 0 L 0.25 0 L 0.25 -1.1875 L 1.03125 -1.1875 L 1.03125 -4.78125 L 0.25 -4.78125 L 0.25 -5.96875 L 3.328125 -5.96875 L 3.328125 -4.78125 L 2.5625 -4.78125 L 2.5625 -1.1875 L 3.328125 -1.1875 Z M 1.0625 -7.6875 L 2.515625 -7.6875 L 2.515625 -6.484375 L 1.0625 -6.484375 Z M 1.0625 -7.6875 "/></g></g></g><g fill="#000000" fill-opacity="1"><g transform="translate(198.877437, 214.716121)"><g><path d="M 5.625 -3.328125 L 4.4375 -1.1875 L 3.234375 -1.1875 L 2.046875 -3.328125 L 2.046875 0 L 0.515625 0 L 0.515625 -5.96875 L 2.140625 -5.96875 L 3.84375 -2.8125 L 5.546875 -5.96875 L 7.171875 -5.96875 L 7.171875 0 L 5.625 0 Z M 5.625 -3.328125 "/></g></g></g><g fill="#000000" fill-opacity="1"><g transform="translate(213.041391, 214.716121)"><g/></g></g><g fill="#000000" fill-opacity="1"><g transform="translate(222.088907, 214.716121)"><g><path d="M 0.515625 -5.96875 L 4.09375 -5.96875 C 4.6875 -5.96875 5.117188 -5.832031 5.390625 -5.5625 C 5.660156 -5.289062 5.796875 -4.859375 5.796875 -4.265625 L 5.796875 -3.40625 C 5.796875 -2.8125 5.660156 -2.378906 5.390625 -2.109375 C 5.117188 -1.835938 4.6875 -1.703125 4.09375 -1.703125 L 2.046875 -1.703125 L 2.046875 0 L 0.515625 0 Z M 4.265625 -4.265625 C 4.265625 -4.609375 4.09375 -4.78125 3.75 -4.78125 L 2.046875 -4.78125 L 2.046875 -2.90625 L 3.75 -2.90625 C 4.09375 -2.90625 4.265625 -3.070312 4.265625 -3.40625 Z M 4.265625 -4.265625 "/></g></g></g><g fill="#000000" fill-opacity="1"><g transform="translate(234.632659, 214.716121)"><g><path d="M 2.046875 -1.1875 L 5.15625 -1.1875 L 5.15625 0 L 0.515625 0 L 0.515625 -5.96875 L 2.046875 -5.96875 Z M 2.046875 -1.1875 "/></g></g></g><g fill="#000000" fill-opacity="1"><g transform="translate(246.366304, 214.716121)"><g><path d="M 1.578125 0 L -0.078125 0 L 2.171875 -5.96875 L 3.875 -5.96875 L 6.140625 0 L 4.484375 0 L 4.09375 -1.0625 L 1.96875 -1.0625 Z M 2.34375 -2.171875 L 3.71875 -2.171875 L 3.03125 -4.1875 Z M 2.34375 -2.171875 "/></g></g></g><g fill="#000000" fill-opacity="1"><g transform="translate(258.910056, 214.716121)"><g><path d="M 3.40625 0 L 1.875 0 L 1.875 -4.78125 L 0.078125 -4.78125 L 0.078125 -5.96875 L 5.203125 -5.96875 L 5.203125 -4.78125 L 3.40625 -4.78125 Z M 3.40625 0 "/></g></g></g><g fill="#000000" fill-opacity="1"><g transform="translate(270.686336, 214.716121)"><g><path d="M 2.046875 0 L 0.515625 0 L 0.515625 -5.96875 L 5.25 -5.96875 L 5.25 -4.78125 L 2.046875 -4.78125 L 2.046875 -3.375 L 4.5625 -3.375 L 4.5625 -2.171875 L 2.046875 -2.171875 Z M 2.046875 0 "/></g></g></g><g fill="#000000" fill-opacity="1"><g transform="translate(282.505252, 214.716121)"><g><path d="M 4.34375 -4.34375 C 4.34375 -4.6875 4.175781 -4.859375 3.84375 -4.859375 L 2.390625 -4.859375 C 2.046875 -4.859375 1.875 -4.6875 1.875 -4.34375 L 1.875 -1.625 C 1.875 -1.28125 2.046875 -1.109375 2.390625 -1.109375 L 3.84375 -1.109375 C 4.175781 -1.109375 4.34375 -1.28125 4.34375 -1.625 Z M 5.890625 -1.625 C 5.890625 -1.019531 5.753906 -0.582031 5.484375 -0.3125 C 5.210938 -0.0507812 4.78125 0.078125 4.1875 0.078125 L 2.046875 0.078125 C 1.453125 0.078125 1.019531 -0.0507812 0.75 -0.3125 C 0.476562 -0.582031 0.34375 -1.019531 0.34375 -1.625 L 0.34375 -4.34375 C 0.34375 -4.945312 0.476562 -5.382812 0.75 -5.65625 C 1.019531 -5.925781 1.453125 -6.0625 2.046875 -6.0625 L 4.1875 -6.0625 C 4.78125 -6.0625 5.210938 -5.925781 5.484375 -5.65625 C 5.753906 -5.382812 5.890625 -4.945312 5.890625 -4.34375 Z M 5.890625 -1.625 "/></g></g></g><g fill="#000000" fill-opacity="1"><g transform="translate(295.219543, 214.716121)"><g><path d="M 0.515625 -5.96875 L 4.09375 -5.96875 C 4.6875 -5.96875 5.117188 -5.832031 5.390625 -5.5625 C 5.660156 -5.289062 5.796875 -4.859375 5.796875 -4.265625 L 5.796875 -3.5 C 5.796875 -3.03125 5.71875 -2.660156 5.5625 -2.390625 C 5.40625 -2.128906 5.15625 -1.957031 4.8125 -1.875 L 5.890625 0 L 4.21875 0 L 3.234375 -1.796875 L 2.046875 -1.796875 L 2.046875 0 L 0.515625 0 Z M 4.265625 -4.265625 C 4.265625 -4.609375 4.09375 -4.78125 3.75 -4.78125 L 2.046875 -4.78125 L 2.046875 -2.984375 L 3.75 -2.984375 C 4.09375 -2.984375 4.265625 -3.15625 4.265625 -3.5 Z M 4.265625 -4.265625 "/></g></g></g><g fill="#000000" fill-opacity="1"><g transform="translate(307.848565, 214.716121)"><g><path d="M 5.625 -3.328125 L 4.4375 -1.1875 L 3.234375 -1.1875 L 2.046875 -3.328125 L 2.046875 0 L 0.515625 0 L 0.515625 -5.96875 L 2.140625 -5.96875 L 3.84375 -2.8125 L 5.546875 -5.96875 L 7.171875 -5.96875 L 7.171875 0 L 5.625 0 Z M 5.625 -3.328125 "/></g></g></g><g fill="#000000" fill-opacity="1"><g transform="translate(322.012509, 214.716121)"><g><path d="M 4.34375 -5.96875 L 5.890625 -5.96875 L 5.890625 -1.625 C 5.890625 -1.019531 5.753906 -0.582031 5.484375 -0.3125 C 5.210938 -0.0507812 4.78125 0.078125 4.1875 0.078125 L 2.21875 0.078125 C 1.625 0.078125 1.191406 -0.0507812 0.921875 -0.3125 C 0.648438 -0.582031 0.515625 -1.019531 0.515625 -1.625 L 0.515625 -5.96875 L 2.046875 -5.96875 L 2.046875 -1.625 C 2.046875 -1.28125 2.21875 -1.109375 2.5625 -1.109375 L 3.84375 -1.109375 C 4.175781 -1.109375 4.34375 -1.28125 4.34375 -1.625 Z M 4.34375 -5.96875 "/></g></g></g><path stroke-linecap="round" transform="matrix(0, 0.75, -0.75, 0, 121.370476, 148.833974)" fill="none" stroke-linejoin="miter" d="M 1.997409 1.999176 L 101.122416 1.999176 " stroke="#058ef5" stroke-width="4" stroke-opacity="1" stroke-miterlimit="4"/></svg>